<svg width="268" height="53" viewBox="0 0 268 53" fill="none" xmlns="http://www.w3.org/2000/svg">
<path d="M23.2107 33.98C22.2507 38.02 20.5707 41.42 18.1707 44.18C15.8107 46.94 13.3707 48.32 10.8507 48.32C8.3307 48.32 6.3707 47.42 4.9707 45.62C3.6107 43.82 2.9307 41.4 2.9307 38.36C2.9307 34.92 3.7107 31.68 5.2707 28.64C6.1507 26.92 7.2707 25.36 8.6307 23.96C9.9907 22.56 11.7907 21.26 14.0307 20.06C16.3107 18.82 18.9107 17.84 21.8307 17.12L23.1507 18.26L21.2307 23.6C19.9107 23.08 18.6307 22.82 17.3907 22.82C14.5507 22.82 12.2907 24.08 10.6107 26.6C8.9307 29.12 8.0907 32.02 8.0907 35.3C8.0907 37.54 8.5507 39.28 9.4707 40.52C10.3907 41.76 11.5107 42.38 12.8307 42.38C15.8307 42.38 18.5307 39.42 20.9307 33.5C20.9707 33.26 21.1507 33.14 21.4707 33.14C21.8307 33.14 22.4107 33.42 23.2107 33.98ZM47.8229 24.92C47.3829 26.76 46.5029 28.42 45.1829 29.9C43.8629 31.38 42.3629 32.56 40.6829 33.44C37.6029 35.04 34.9029 36.06 32.5829 36.5C32.7429 38.5 33.2629 39.98 34.1429 40.94C35.0229 41.9 36.0829 42.38 37.3229 42.38C40.8429 42.38 44.0229 39.42 46.8629 33.5C46.9029 33.26 47.1029 33.14 47.4629 33.14C47.8229 33.14 48.3629 33.42 49.0829 33.98C47.3629 38.14 45.2429 41.58 42.7229 44.3C40.2429 46.98 37.7629 48.32 35.2829 48.32C32.8029 48.32 30.8629 47.42 29.4629 45.62C28.1029 43.82 27.4229 41.4 27.4229 38.36C27.4229 34.16 28.5629 30.28 30.8429 26.72C32.0829 24.8 33.8229 23.12 36.0629 21.68C38.3429 20.2 41.0429 19.1 44.1629 18.38C46.6029 19.22 47.8229 21.4 47.8229 24.92ZM40.8029 23.12C39.1229 23.12 37.3829 24.1 35.5829 26.06C33.7829 27.98 32.7829 30.66 32.5829 34.1C35.9029 33.22 38.4429 31.94 40.2029 30.26C42.0029 28.54 42.9029 26.86 42.9029 25.22C42.9029 24.62 42.7229 24.12 42.3629 23.72C42.0029 23.32 41.4829 23.12 40.8029 23.12ZM71.2098 18.68L69.2898 24.02C67.4498 22.82 65.6298 22.22 63.8298 22.22C60.8698 22.22 59.3898 23.36 59.3898 25.64C59.3898 27.2 60.6298 29.02 63.1098 31.1C64.1898 31.98 65.2498 32.9 66.2898 33.86C68.7698 36.14 70.0098 38.44 70.0098 40.76C70.0098 42.56 69.3298 44.28 67.9698 45.92C67.2098 46.8 65.9698 47.5 64.2498 48.02C62.5698 48.58 60.6298 48.86 58.4298 48.86C56.2298 48.86 54.2498 48.58 52.4898 48.02C52.2898 47.86 52.0498 47.5 51.7698 46.94C51.5298 46.34 51.4098 45.92 51.4098 45.68C51.4098 45.44 51.4498 45.32 51.5298 45.32C51.6498 45.32 51.9498 45.38 52.4298 45.5C53.6298 45.82 55.1498 45.98 56.9898 45.98C58.8298 45.98 60.3698 45.58 61.6098 44.78C62.8898 43.98 63.5298 42.96 63.5298 41.72C63.5298 40.48 63.0098 39.26 61.9698 38.06C60.9698 36.86 59.8498 35.78 58.6098 34.82C57.4098 33.86 56.2898 32.68 55.2498 31.28C54.2498 29.84 53.7498 28.4 53.7498 26.96C53.7498 25.68 54.1698 24.54 55.0098 23.54C55.8898 22.5 56.8898 21.64 58.0098 20.96C60.7298 19.36 64.6898 18.22 69.8898 17.54L71.2098 18.68ZM91.6196 19.52L96.4796 17.42L97.9196 18.26C96.5996 22.14 95.9396 26.62 95.9396 31.7C95.9396 33.86 96.1196 36.86 96.4796 40.7C96.8396 44.54 97.1796 47.14 97.4996 48.5C97.4996 48.62 97.1996 48.68 96.5996 48.68C95.9996 48.68 95.4196 48.4 94.8596 47.84C93.5796 44.88 92.5596 40.52 91.7996 34.76C90.1196 38.76 88.0996 42.02 85.7396 44.54C83.4196 47.06 81.3196 48.32 79.4396 48.32C75.8396 48.32 74.0396 46.06 74.0396 41.54C74.0396 38.94 74.5596 36.44 75.5996 34.04C76.6396 31.64 78.0396 29.54 79.7996 27.74C83.3196 24.18 87.2596 21.44 91.6196 19.52ZM82.6796 41.12C83.9596 41.12 85.3796 40.1 86.9396 38.06C88.5396 35.98 89.9596 33.06 91.1996 29.3C91.1596 28.74 91.1396 27.66 91.1396 26.06C91.1396 24.46 91.1596 23.28 91.1996 22.52C87.7596 24.48 84.9796 26.58 82.8596 28.82C80.7396 31.02 79.6796 33.62 79.6796 36.62C79.6796 39.62 80.6796 41.12 82.6796 41.12ZM121.963 19.16L120.523 26.06C120.003 25.9 119.303 25.82 118.423 25.82C117.543 25.82 116.703 26.1 115.903 26.66C115.103 27.22 114.363 28.18 113.683 29.54C113.003 30.9 112.423 32.32 111.943 33.8C111.463 35.28 110.983 36.86 110.503 38.54C110.023 40.22 109.623 41.62 109.303 42.74C109.023 43.82 108.443 45.54 107.563 47.9C107.043 48.5 106.303 48.8 105.343 48.8C105.023 48.8 104.863 48.72 104.863 48.56C105.903 43.48 106.423 38.44 106.423 33.44C106.423 28.4 105.803 23.56 104.563 18.92L106.003 17.9L110.863 20.48C111.143 23.36 111.283 25.9 111.283 28.1V28.94C113.763 23.14 116.903 19.5 120.703 18.02L121.963 19.16Z" fill="url(#paint0_radial_1_4)"/>
<path d="M126.9 42.9C127 42.7 127.1 42.525 127.2 42.375C127.3 42.175 127.4 41.975 127.5 41.775C128.05 40.875 128.4 40.025 128.55 39.225C128.7 38.425 128.975 38 129.375 37.95C129.825 37.9 130.2 37.75 130.5 37.5C130.85 37.25 131.075 36.975 131.175 36.675C131.325 36.325 131.325 36 131.175 35.7C131.075 35.35 130.775 35.075 130.275 34.875L136.65 26.925C137.15 27.175 137.6 27.025 138 26.475C138.45 25.875 138.8 25.175 139.05 24.375C139.35 23.525 139.55 22.725 139.65 21.975C139.8 21.175 139.85 20.7 139.8 20.55C140.1 20.15 140.525 19.65 141.075 19.05C141.625 18.4 142.25 17.275 142.95 15.675C143.7 14.075 144.25 12.825 144.6 11.925C145 11.025 145.25 10.475 145.35 10.275C145.55 9.825 145.725 9.475 145.875 9.225C146.025 8.975 146.125 8.825 146.175 8.775L145.05 7.275C144.5 7.325 144.1 7.525 143.85 7.875C143.6 8.225 143.125 8.45 142.425 8.55C142.075 8.6 141.775 8.65 141.525 8.7C141.275 8.7 141.05 8.7 140.85 8.7C140.7 8.75 140.525 8.775 140.325 8.775C139.975 8.775 139.3 8.525 138.3 8.025C137.35 7.525 136.3 7.125 135.15 6.825C135.2 6.925 135.15 7.025 135 7.125C134.9 7.225 134.775 7.325 134.625 7.425C134.525 7.525 134.425 7.625 134.325 7.725C134.225 7.825 134.225 7.95 134.325 8.1C134.125 8.1 133.95 8.075 133.8 8.025C133.6 7.975 133.375 7.925 133.125 7.875C132.875 7.825 132.575 7.75 132.225 7.65C131.525 7.4 130.95 7.25 130.5 7.2C130.1 7.1 129.85 7.05 129.75 7.05C129.5 7.05 129.325 6.925 129.225 6.675C129.225 6.625 129.2 6.45 129.15 6.15C129.1 5.8 129.025 5.4 128.925 4.95C128.875 4.5 128.775 4.05 128.625 3.6C128.525 3.15 128.4 2.8 128.25 2.55L129.3 0.599996C130.15 0.599996 131.1 0.624997 132.15 0.675C133.2 0.724999 134.375 0.799998 135.675 0.899997C137.675 1.05 139.35 1.175 140.7 1.275C142.05 1.375 143.15 1.4 144 1.35C143.7 2.8 144.4 3.125 146.1 2.325C146.55 2.125 147.025 1.975 147.525 1.875C148.075 1.725 148.6 1.625 149.1 1.575C149.65 1.525 150.125 1.5 150.525 1.5C150.975 1.5 151.3 1.525 151.5 1.575C152.1 2.025 153.175 2.275 154.725 2.325C155.525 2.375 156.225 2.475 156.825 2.625C157.475 2.775 158.075 3.05 158.625 3.45C158.525 3.75 158.45 4.125 158.4 4.575C158.35 5.025 158.3 5.45 158.25 5.85C158.25 6.25 158.25 6.6 158.25 6.9C158.25 7.2 158.25 7.375 158.25 7.425C158.45 7.725 158.775 8 159.225 8.25L159.075 8.55L158.925 8.475C158.925 9.325 158.925 9.85 158.925 10.05C158.975 10.25 158.775 10.35 158.325 10.35L158.25 10.5L154.2 18.225C152.15 21.475 150.5 24.1 149.25 26.1C148.05 28.1 147.1 29.725 146.4 30.975C145.7 32.175 145.175 33.15 144.825 33.9C144.475 34.6 144.125 35.3 143.775 36C143.475 36.65 143.1 37.175 142.65 37.575C142.25 37.975 141.85 38.3 141.45 38.55C141.1 38.75 140.775 38.9 140.475 39C140.225 39.1 140.1 39.175 140.1 39.225C139.4 39.525 139 39.9 138.9 40.35C138.85 40.75 138.975 41.125 139.275 41.475C139.575 41.775 140.025 42 140.625 42.15C141.275 42.25 141.975 42.15 142.725 41.85C143.025 41.85 143.275 41.8 143.475 41.7C143.675 41.6 143.875 41.475 144.075 41.325C144.275 41.175 144.5 41.025 144.75 40.875C145.05 40.675 145.45 40.5 145.95 40.35C147 40.1 147.65 40.05 147.9 40.2C148.15 40.3 148.475 40.375 148.875 40.425C149.275 40.425 149.825 40.4 150.525 40.35C152.325 40.3 153.3 40.3 153.45 40.35C153.55 40.45 153.7 40.7 153.9 41.1C154.45 41.05 155.075 40.95 155.775 40.8C156.525 40.6 157.375 40.375 158.325 40.125C158.575 40.025 158.8 39.95 159 39.9C159.2 39.85 159.4 39.8 159.6 39.75L161.55 42L161.625 43.725L160.425 44.925C159.575 45.025 158.825 45.25 158.175 45.6C157.075 46.05 156.15 46.075 155.4 45.675C154.8 45.525 154.275 45.425 153.825 45.375C153.425 45.325 153.1 45.35 152.85 45.45C152.7 45.45 152.325 45.475 151.725 45.525C151.175 45.525 150.55 45.525 149.85 45.525C149.15 45.525 148.45 45.55 147.75 45.6C147.1 45.6 146.6 45.6 146.25 45.6C145.8 45.7 145.525 45.725 145.425 45.675C145.325 45.625 145.225 45.55 145.125 45.45C145.075 45.35 144.95 45.25 144.75 45.15C144.55 45 144.15 44.875 143.55 44.775C142.9 44.675 142.075 44.7 141.075 44.85C140.125 44.95 139.125 45.125 138.075 45.375C137.025 45.625 135.975 45.95 134.925 46.35C133.925 46.75 133.1 47.175 132.45 47.625L131.7 47.325C131.15 47.275 130.85 47.35 130.8 47.55C130.65 47.55 130.525 47.575 130.425 47.625C130.375 47.625 130.3 47.625 130.2 47.625H129.975C129.375 47.325 129.025 47.125 128.925 47.025C128.825 46.925 128.8 46.85 128.85 46.8L127.575 46.65L126.9 42.9ZM207.104 7.725C206.654 8.725 206.129 9.75 205.529 10.8C204.929 11.8 204.329 12.875 203.729 14.025C202.179 17.175 200.979 19.175 200.129 20.025C199.929 20.475 199.604 21.075 199.154 21.825C198.754 22.525 198.329 23.525 197.879 24.825C199.229 26.525 200.254 28.15 200.954 29.7C201.704 31.2 202.279 32.225 202.679 32.775C202.829 32.925 203.104 33.175 203.504 33.525C203.954 33.825 204.429 34.175 204.929 34.575C205.429 34.925 205.929 35.325 206.429 35.775C206.929 36.225 207.354 36.675 207.704 37.125C208.404 37.975 209.029 38.8 209.579 39.6C210.179 40.4 210.754 40.875 211.304 41.025C211.304 41.575 211.329 42 211.379 42.3C211.479 42.55 211.554 42.725 211.604 42.825C211.654 42.875 211.954 42.9 212.504 42.9V44.55C211.454 45.25 210.479 45.95 209.579 46.65C208.679 47.3 207.929 47.85 207.329 48.3L204.629 48.975C204.529 48.825 204.179 48.55 203.579 48.15C203.029 47.75 202.404 47.325 201.704 46.875C201.004 46.425 200.354 46 199.754 45.6C199.154 45.2 198.779 44.9 198.629 44.7C198.079 43.9 197.604 43.275 197.204 42.825C196.854 42.375 196.579 42.025 196.379 41.775C196.229 41.675 196.004 41.475 195.704 41.175C195.454 40.975 195.154 40.725 194.804 40.425C194.454 40.125 194.029 39.725 193.529 39.225C192.979 38.775 192.529 38.325 192.179 37.875C191.879 37.425 191.579 36.975 191.279 36.525C191.029 36.025 190.754 35.525 190.454 35.025C190.204 34.525 189.854 34.025 189.404 33.525C188.454 35.075 187.679 36.475 187.079 37.725C186.529 38.925 186.054 39.825 185.654 40.425C184.804 42.025 184.254 42.875 184.004 42.975C183.854 43.025 183.529 43.025 183.029 42.975C182.679 43.375 182.304 43.925 181.904 44.625C181.504 45.325 181.004 46.175 180.404 47.175C180.104 47.725 179.829 48.225 179.579 48.675C179.379 49.075 179.229 49.4 179.129 49.65L176.804 49.875L175.304 49.575L173.054 46.8C173.504 45.75 173.854 44.825 174.104 44.025C174.354 43.175 174.779 42.625 175.379 42.375C176.429 41.325 177.654 39.375 179.054 36.525C179.404 35.775 179.654 35.15 179.804 34.65C180.004 34.15 180.154 33.725 180.254 33.375C180.404 33.025 180.529 32.725 180.629 32.475C180.779 32.175 180.979 31.875 181.229 31.575C182.729 31.875 183.829 32.025 184.529 32.025C184.879 32.025 185.154 31.775 185.354 31.275C185.554 30.725 185.654 30.125 185.654 29.475C185.704 28.775 185.654 28.15 185.504 27.6C185.354 27 185.154 26.65 184.904 26.55L182.279 26.325C182.079 25.625 181.754 24.775 181.304 23.775C180.904 22.725 180.379 21.9 179.729 21.3C179.429 21 179.129 20.775 178.829 20.625C178.579 20.475 178.354 20.35 178.154 20.25C177.954 20.1 177.779 19.95 177.629 19.8C177.479 19.6 177.354 19.3 177.254 18.9L175.154 17.025C175.354 16.475 175.404 15.9 175.304 15.3C175.254 14.7 174.979 14.25 174.479 13.95C174.229 13.8 174.004 13.7 173.804 13.65C173.604 13.6 173.429 13.55 173.279 13.5H172.829C172.679 13.35 172.429 12.875 172.079 12.075C171.729 11.225 171.054 9.925 170.054 8.175L170.804 6.3L180.254 3.525L182.429 4.275C182.429 4.425 182.379 4.55 182.279 4.65C182.029 4.75 182.179 5.125 182.729 5.775C182.979 5.925 183.179 6.075 183.329 6.225C183.529 6.375 183.729 6.5 183.929 6.6C184.229 6.85 184.529 7.1 184.829 7.35C185.129 7.6 185.354 7.8 185.504 7.95C185.554 8.05 185.604 8.15 185.654 8.25C185.704 8.3 185.729 8.4 185.729 8.55C185.779 8.65 185.829 8.85 185.879 9.15C185.929 9.45 185.979 9.875 186.029 10.425C186.029 10.725 186.229 11.2 186.629 11.85C187.079 12.45 187.604 13.125 188.204 13.875C188.804 14.625 189.404 15.4 190.004 16.2C190.604 16.95 191.079 17.6 191.429 18.15C192.529 18.65 193.179 19.05 193.379 19.35C193.829 18.6 194.279 17.825 194.729 17.025C195.229 16.175 195.654 15.375 196.004 14.625C196.404 13.875 196.729 13.2 196.979 12.6C197.229 11.95 197.354 11.425 197.354 11.025C197.354 10.225 197.529 9.675 197.879 9.375C198.279 9.075 198.479 8.825 198.479 8.625C198.479 8.525 198.754 8.1 199.304 7.35C199.854 6.55 200.254 5.625 200.504 4.575L202.679 3.225H205.379C205.829 3.325 206.379 3.6 207.029 4.05C207.679 4.5 208.079 4.975 208.229 5.475L207.104 7.725ZM218.913 44.175C219.013 43.125 219.088 41.525 219.138 39.375C219.238 37.925 219.413 36.8 219.663 36C219.913 35.15 220.038 34.575 220.038 34.275C220.038 34.075 220.063 33.825 220.113 33.525C220.163 33.225 220.188 32.925 220.188 32.625C220.188 32.325 220.113 32.075 219.963 31.875C219.863 31.675 219.663 31.575 219.363 31.575L219.813 26.925C220.363 25.475 220.663 23.55 220.713 21.15C220.763 20 220.763 18.925 220.713 17.925C220.663 16.925 220.763 16.025 221.013 15.225L221.238 11.925C222.188 12.075 222.438 11.65 221.988 10.65C221.838 10.1 221.713 9.7 221.613 9.45C221.563 9.2 221.613 9.075 221.763 9.075C221.863 8.525 221.913 7.85 221.913 7.05C221.963 6.2 222.038 4.9 222.138 3.15L223.638 2.325C224.338 2.625 225.313 2.9 226.563 3.15C227.863 3.35 228.938 3.5 229.788 3.6C230.788 3.75 231.588 3.875 232.188 3.975C232.788 4.025 233.188 4.075 233.388 4.125L233.988 5.475C233.788 6.525 233.613 7.625 233.463 8.775C233.363 9.875 233.263 10.975 233.163 12.075C233.113 13.125 233.038 14.15 232.938 15.15C232.838 16.1 232.713 16.925 232.563 17.625C232.363 18.125 232.313 19.45 232.413 21.6C232.463 21.85 232.488 22.1 232.488 22.35C232.488 22.6 232.488 22.825 232.488 23.025V23.925C232.488 24.275 232.463 24.525 232.413 24.675C231.713 25.075 231.238 25.75 230.988 26.7C230.788 27.6 230.763 28.625 230.913 29.775C231.013 30.225 231.163 30.6 231.363 30.9C231.563 31.15 231.763 31.8 231.963 32.85C232.113 33.4 232.188 34.025 232.188 34.725C232.238 35.425 232.238 36.125 232.188 36.825C232.188 37.525 232.163 38.225 232.113 38.925C232.063 39.575 232.038 40.15 232.038 40.65C231.388 41.15 231.088 41.725 231.138 42.375C231.188 42.975 231.263 43.525 231.363 44.025C231.113 44.175 230.863 44.3 230.613 44.4C230.513 44.45 230.438 44.475 230.388 44.475C230.338 44.475 230.288 44.5 230.238 44.55C230.038 44.65 229.863 44.725 229.713 44.775C229.613 44.825 229.513 44.875 229.413 44.925H229.338L229.413 44.85C229.513 44.75 229.563 44.675 229.563 44.625C229.413 44.675 228.813 44.7 227.763 44.7H223.188C222.688 44.75 222.138 44.8 221.538 44.85C220.938 44.9 220.413 44.975 219.963 45.075L218.913 44.175ZM262.938 47.325H254.013L250.188 46.35L250.488 42.75L247.713 38.775L243.888 33.675L239.088 29.925L236.688 29.475C236.338 28.425 235.913 27.525 235.413 26.775C235.313 26.575 235.213 26.4 235.113 26.25C235.013 26.1 234.913 25.975 234.813 25.875C234.663 25.575 234.488 25.35 234.288 25.2L233.913 24.75C234.263 24.3 234.563 24.025 234.813 23.925C235.063 23.825 235.338 23.725 235.638 23.625C235.938 23.525 236.288 23.3 236.688 22.95C237.138 22.55 237.763 21.825 238.563 20.775C239.013 20.125 239.413 19.575 239.763 19.125C240.163 18.625 240.488 18.2 240.738 17.85C240.888 17.65 241.038 17.475 241.188 17.325C241.338 17.125 241.463 16.975 241.563 16.875C242.063 16.475 242.988 15.6 244.338 14.25C245.738 12.9 247.513 11.025 249.663 8.625C251.113 7.025 252.338 5.7 253.338 4.65C254.388 3.55 255.213 2.7 255.813 2.1L257.538 1.725C257.888 2.125 258.188 2.475 258.438 2.775C258.738 3.025 258.988 3.3 259.188 3.6C259.588 3.4 259.938 3.475 260.238 3.825C260.538 4.125 260.763 4.45 260.913 4.8C260.913 4.9 261.013 5.025 261.213 5.175C261.463 5.325 261.688 5.5 261.888 5.7C262.088 5.85 262.238 6.05 262.338 6.3C262.438 6.5 262.338 6.725 262.038 6.975L260.688 8.325C260.488 8.525 260.288 8.725 260.088 8.925C259.938 9.075 259.813 9.25 259.713 9.45C259.263 9.8 258.138 10.375 256.338 11.175C254.438 12.025 253.238 12.725 252.738 13.275C252.488 13.625 252.213 14.05 251.913 14.55C251.663 15.05 251.363 15.575 251.013 16.125C250.713 16.625 250.363 17.1 249.963 17.55C249.613 18 249.238 18.325 248.838 18.525C248.788 18.575 248.713 18.625 248.613 18.675C248.563 18.725 248.388 18.9 248.088 19.2C248.038 19.15 247.963 19.1 247.863 19.05C247.813 19 247.738 18.925 247.638 18.825C247.588 18.775 247.538 18.75 247.488 18.75C247.438 18.7 247.388 18.65 247.338 18.6C247.238 18.85 247.063 19 246.813 19.05C246.713 19.1 246.538 19.125 246.288 19.125C245.688 19.575 245.363 20.1 245.313 20.7C245.313 21.25 245.438 21.725 245.688 22.125C245.738 22.175 245.513 22.45 245.013 22.95C244.563 23.45 244.163 23.95 243.813 24.45L245.988 25.575L249.663 30.225L257.313 37.725L262.938 43.35L264.813 44.4L264.738 45.75L262.938 47.325ZM229.263 45L229.338 44.925L229.263 45Z" fill="url(#paint1_radial_1_4)"/>
<defs>
<radialGradient id="paint0_radial_1_4" cx="0" cy="0" r="1" gradientUnits="userSpaceOnUse" gradientTransform="translate(60.5 28.5) rotate(90) scale(17.5 60.5)">
<stop stop-color="#0066FF"/>
<stop offset="0.71875" stop-color="#001D48"/>
<stop offset="1"/>
</radialGradient>
<radialGradient id="paint1_radial_1_4" cx="0" cy="0" r="1" gradientUnits="userSpaceOnUse" gradientTransform="translate(195.5 28) rotate(90) scale(25 72.5)">
<stop stop-color="#0066FF"/>
<stop offset="0.71875" stop-color="#001D48"/>
<stop offset="1"/>
</radialGradient>
</defs>
</svg>
