<svg width="80" height="80" viewBox="0 0 80 80" fill="none" xmlns="http://www.w3.org/2000/svg">
<circle cx="40" cy="40" r="40" fill="white"/>
<path d="M22.1831 26.4775H14.8892V62H22.1831V26.4775ZM65.9231 62H58.6292V36.8975L49.7485 56.0322H44.1123L35.2554 36.9685V62H27.9614V26.4775H37.2209L46.9304 47.9331L56.6399 26.4775H65.9231V62Z" fill="#262353"/>
<path d="M22.5 21C22.5 21.9254 22.1791 22.8222 21.592 23.5376C21.005 24.2529 20.188 24.7426 19.2804 24.9231C18.3727 25.1037 17.4306 24.9639 16.6144 24.5277C15.7983 24.0914 15.1586 23.3857 14.8045 22.5307C14.4503 21.6758 14.4036 20.7244 14.6722 19.8389C14.9409 18.9533 15.5083 18.1883 16.2777 17.6741C17.0472 17.16 17.9711 16.9286 18.8921 17.0193C19.813 17.11 20.6741 17.5172 21.3284 18.1716L18.5 21H22.5Z" fill="#FF0000"/>
</svg>
