<svg width="132" height="54" viewBox="0 0 132 54" fill="none" xmlns="http://www.w3.org/2000/svg">
<path d="M54.8508 49H47.5569V23.8975L38.6763 43.0322H33.04L24.1831 23.9685V49H16.8892V13.4775H26.1487L35.8582 34.9331L45.5676 13.4775H54.8508V49ZM65.9812 49H58.332L72.4937 13.4775H80.1902L94.3281 49H86.679L83.7661 41.3745H68.894L65.9812 49ZM71.2859 34.9805H81.3979L76.3301 21.8135L71.2859 34.9805ZM97.7856 49V13.4775H109.934C112.918 13.4775 115.492 13.967 117.655 14.9458C119.833 15.9089 121.507 17.2903 122.675 19.0901C123.843 20.8741 124.427 23.0055 124.427 25.4841C124.427 27.9628 123.843 30.1099 122.675 31.9255C121.507 33.7253 119.841 35.1147 117.678 36.0935C115.531 37.0723 112.973 37.5618 110.005 37.5618H105.08V49H97.7856ZM105.08 31.1677H109.248C111.726 31.1677 113.629 30.6783 114.955 29.6995C116.297 28.7048 116.968 27.2997 116.968 25.4841C116.968 23.7001 116.297 22.3187 114.955 21.3398C113.629 20.3452 111.726 19.8479 109.248 19.8479H105.08V31.1677Z" fill="#262353"/>
<path d="M10.2945 13.4373H0.899556C0.661302 13.4373 0.432779 13.5319 0.264133 13.7002C0.0954868 13.8685 0.000494303 14.0968 0 14.335L0 19.2453C-2.55105e-07 19.3633 0.0232809 19.4802 0.0685107 19.5892C0.11374 19.6983 0.180031 19.7973 0.263587 19.8807C0.347143 19.9641 0.446324 20.0302 0.555452 20.0752C0.66458 20.1202 0.781513 20.1432 0.899556 20.143H4.19171C4.22798 20.143 4.2639 20.1501 4.29741 20.164C4.33092 20.1779 4.36137 20.1982 4.38702 20.2239C4.41267 20.2495 4.43301 20.28 4.44689 20.3135C4.46077 20.347 4.46792 20.3829 4.46792 20.4192V48.5704C4.46792 48.7958 4.55732 49.012 4.71652 49.1715C4.87572 49.3311 5.0917 49.421 5.31708 49.4214H10.3449C10.4541 49.4214 10.5623 49.3999 10.6631 49.3581C10.764 49.3162 10.8557 49.2549 10.9328 49.1775C11.01 49.1002 11.0711 49.0084 11.1127 48.9075C11.1543 48.8065 11.1756 48.6983 11.1754 48.5891V14.3164C11.1749 14.0831 11.0819 13.8595 10.9167 13.6947C10.7516 13.5299 10.5278 13.4373 10.2945 13.4373V13.4373Z" fill="#262353"/>
<path d="M9.85593 1.18323C9.06462 0.394411 8.01887 0 6.71868 0C5.41849 0 4.3547 0.394411 3.52731 1.18323C2.71734 1.97454 2.31049 2.99728 2.31049 4.26076C2.31049 5.52424 2.71734 6.55071 3.52731 7.33642C4.33729 8.12213 5.39361 8.51965 6.70935 8.51965C8.02509 8.51965 9.06462 8.12586 9.85593 7.33642C10.6472 6.54697 11.0373 5.52238 11.0373 4.26076C11.0373 2.99914 10.6379 1.97454 9.85593 1.18323Z" fill="#E3003A"/>
</svg>
