<svg width="127" height="53" viewBox="0 0 127 53" fill="none" xmlns="http://www.w3.org/2000/svg">
<path d="M10.1831 12.4775H2.88916V48H10.1831V12.4775ZM53.9231 48H46.6292V22.8975L37.7485 42.0322H32.1123L23.2554 22.9685V48H15.9614V12.4775H25.2209L34.9304 33.9331L44.6399 12.4775H53.9231V48ZM65.0535 48H57.4043L71.5659 12.4775H79.2625L93.4004 48H85.7512L82.8384 40.3745H67.9663L65.0535 48ZM70.3582 33.9805H80.4702L75.4023 20.8135L70.3582 33.9805ZM96.8579 48V12.4775H109.007C111.99 12.4775 114.564 12.967 116.727 13.9458C118.906 14.9089 120.579 16.2903 121.747 18.0901C122.916 19.8741 123.5 22.0055 123.5 24.4841C123.5 26.9628 122.916 29.1099 121.747 30.9255C120.579 32.7253 118.913 34.1147 116.75 35.0935C114.603 36.0723 112.046 36.5618 109.078 36.5618H104.152V48H96.8579ZM104.152 30.1677H108.32C110.799 30.1677 112.701 29.6783 114.027 28.6995C115.369 27.7048 116.04 26.2997 116.04 24.4841C116.04 22.7001 115.369 21.3187 114.027 20.3398C112.701 19.3452 110.799 18.8479 108.32 18.8479H104.152V30.1677Z" fill="#262353"/>
<path d="M10.5 7.15231C10.5 8.07773 10.1791 8.97452 9.59204 9.68988C9.00496 10.4052 8.188 10.8949 7.28036 11.0755C6.37272 11.256 5.43056 11.1162 4.61441 10.68C3.79826 10.2438 3.15863 9.53802 2.80448 8.68305C2.45034 7.82807 2.4036 6.87675 2.67224 5.99117C2.94087 5.1056 3.50826 4.34057 4.27772 3.82643C5.04718 3.3123 5.9711 3.08087 6.89207 3.17157C7.81303 3.26228 8.67406 3.66951 9.32843 4.32388L6.5 7.15231H10.5Z" fill="#FF0000"/>
</svg>
